<svg width="199" height="200" viewBox="0 0 199 200" fill="none" xmlns="http://www.w3.org/2000/svg">
<path d="M95.8279 195.888L15.1085 96.1706C-29.9346 40.5263 36.0282 -34.8167 78.6734 17.8329L94.3153 37.6539C95.3476 39.5053 96.7287 41.0191 98.3396 42.0648C99.9506 43.1105 101.743 43.6569 103.563 43.6569C105.383 43.6569 107.175 43.1105 108.786 42.0648C110.397 41.0191 111.778 39.5053 112.811 37.6539L131.154 15.295C131.972 13.9411 133.006 12.8096 134.193 11.9708C135.379 11.1321 136.693 10.6041 138.052 10.4198C139.411 10.2355 140.786 10.3987 142.092 10.8994C143.398 11.4001 144.606 12.2276 145.642 13.3302C146.678 14.4328 147.519 15.787 148.112 17.3084C148.706 18.8299 149.04 20.486 149.093 22.1738C149.146 23.8615 148.917 25.5447 148.421 27.1185C147.925 28.6923 147.171 30.123 146.208 31.3216L102.546 85.6685C94.5729 95.5178 105.095 107.277 112.646 97.9577L123.948 84.3628C124.791 83.0017 125.858 81.8757 127.077 81.0582C128.297 80.2407 129.642 79.7502 131.026 79.6186C132.41 79.4871 133.8 79.7174 135.107 80.2947C136.413 80.8719 137.607 81.7831 138.609 82.9687C139.611 84.1543 140.4 85.5876 140.923 87.1752C141.446 88.7628 141.693 90.4689 141.647 92.1822C141.6 93.8954 141.262 95.5773 140.653 97.1181C140.045 98.6588 139.181 100.024 138.116 101.124L104.085 143.459C95.5835 153.961 105.089 166.862 113.762 156.14L161.857 97.9577C173.377 83.7264 185.94 102.446 176.111 114.588L111.252 195.921C109.204 198.449 106.428 199.869 103.533 199.869C100.639 199.869 97.8622 198.449 95.8147 195.921L95.8279 195.888ZM177.545 79.2709C177.545 76.7515 178.15 74.2888 179.283 72.194C180.416 70.0993 182.026 68.4666 183.91 67.5025C185.794 66.5384 187.867 66.2861 189.868 66.7776C191.868 67.2691 193.705 68.4823 195.147 70.2637C196.589 72.0452 197.571 74.3149 197.969 76.7858C198.367 79.2568 198.163 81.818 197.382 84.1455C196.602 86.4731 195.28 88.4625 193.585 89.8622C191.889 91.2619 189.895 92.0089 187.856 92.0089C185.121 92.0089 182.499 90.6669 180.565 88.2781C178.631 85.8892 177.545 82.6492 177.545 79.2709ZM146.294 57.4587C156.797 44.484 167.921 30.5301 179.077 16.7394C190.234 2.94868 203.802 19.6852 193.22 32.7578C182.638 45.8305 159.71 73.722 159.71 73.722C158.695 75.0778 157.471 76.1695 156.11 76.9332C154.749 77.6969 153.278 78.1171 151.783 78.1693C149.82 78.1915 147.902 77.4412 146.306 76.027C144.711 74.6127 143.522 72.6079 142.91 70.3029C142.299 67.9979 142.297 65.5123 142.906 63.206C143.514 60.8998 144.701 58.8926 146.294 57.475V57.4587Z" fill="#4F883C" style="fill:#4F883C;fill:color(display-p3 0.3098 0.5333 0.2353);fill-opacity:1;"/>
<path d="M62.7613 50H74.5065V100.338H62.7613V80.7062H46.7452V100.338H35V50H46.7452V68.9127H62.7613V50Z" fill="white" style="fill:white;fill-opacity:1;"/>
</svg>
